<?xml version="1.0" encoding="UTF-8"?>
<svg xmlns="http://www.w3.org/2000/svg" xmlns:xlink="http://www.w3.org/1999/xlink" width="4001" height="4001" viewBox="0 0 4001 4001">
<path fill-rule="evenodd" fill="rgb(45.092773%, 82.03125%, 99.609375%)" fill-opacity="1" d="M 586.578125 857.609375 C 1025.210938 451.71875 1253.121094 804.371094 1683.910156 907.308594 C 2124.53125 1012.601562 2412.160156 621.339844 2700.71875 769.640625 C 3056.789062 952.648438 2970.558594 1263.46875 3175.828125 1465.488281 C 3351.078125 1637.960938 3585.289062 1687.5 3671.710938 1949.050781 C 3738.558594 2151.378906 3566.339844 2382.359375 3529.460938 2581.539062 C 3493.941406 2773.300781 3544.859375 2975.648438 3493.480469 3164.898438 C 3474.808594 3233.691406 3432.808594 3304.027344 3373.429688 3345.753906 C 3155.179688 3499.117188 2750.949219 3499.941406 2500.761719 3465.640625 C 2388.480469 3450.25 2268.308594 3404.171875 2154.070312 3419.363281 C 1991.121094 3441.03125 1826.980469 3545.539062 1660.371094 3495.632812 C 1498.078125 3447.019531 1339.820312 3320.171875 1266.171875 3165.519531 C 1084.808594 2784.691406 1249.679688 2390.171875 1096.121094 2105.039062 C 1009.769531 1944.710938 839.496094 1876.710938 720.804688 1748.398438 C 278.945312 1270.730469 24.855469 1199.21875 586.578125 857.609375 "/>
</svg>
