<?xml version="1.0" encoding="utf-8"?>
<!-- Generator: Adobe Illustrator 27.5.0, SVG Export Plug-In . SVG Version: 6.00 Build 0)  -->
<svg version="1.1" id="Layer_1" xmlns="http://www.w3.org/2000/svg" xmlns:xlink="http://www.w3.org/1999/xlink" x="0px" y="0px"
	 viewBox="0 0 392.943 392.942" style="enable-background:new 0 0 392.943 392.942;" xml:space="preserve">
<g>
	<g>
		<rect y="-0.001" style="fill:#49B4E5;" width="392.943" height="392.942"/>
		<g>
			<path style="opacity:0.5;fill:#ACEBFF;" d="M344.576,95.731c-13.104,0.086-26.242,0.021-39.303-1.168
				c-6.49-0.591-13.012-1.297-19.357-2.828c-11.24-2.711-22.34-6.14-33.271-9.884c-12.699-4.348-25.602-9.066-37.256-15.809
				c-4.752-2.75-16.316-9.236-13.031-16.472c1.977-4.354,7.439-6.338,11.787-6.946c8.902-1.244,18.279,0.632,27.033,2.164
				c10.459,1.83,20.98,3.328,31.475,4.961c7.205,1.121,14.426,2.192,21.68,2.955c7.006,0.736,14.039,1.076,21.047,1.813
				c25.744,2.707,51.648,7.307,77.564,5.493V49.412c-19.303,1.133-38.514,1.632-57.855,0.659
				c-30.328-1.527-59.729-9.498-89.611-14.216c-15.287-2.413-30.766-3.997-46.256-3.348c-15.336,0.646-30.512,3.05-45.518,6.201
				c-29.371,6.169-58.443,14.989-88.529,16.984C43.387,57.14,21.672,55.547,0,53.393v9.651c9.461,3.969,20.148,4.512,30.285,4.089
				c11.771-0.49,23.422-2.287,35.08-3.859c12.191-1.643,24.404-2.898,36.578-4.711c13.541-2.017,27.227-4.012,40.955-3.697
				c26.822,0.616,51.672,12.549,75.467,23.885c23.99,11.432,48.412,23.326,75.096,26.672c30.252,3.793,60.738,1.824,91.119,1.568
				c2.799-0.023,5.584-0.012,8.363,0.059V95.998C376.85,95.18,360.656,95.623,344.576,95.731z"/>
			<path style="opacity:0.5;fill:#ACEBFF;" d="M65.953,130.086c6.309-2.543,13.963-5.547,18.471-10.9
				c1.635-1.941,2.773-4.519,1.457-6.959c-1.563-2.894-4.682-4.948-7.727-5.995c-8.254-2.836-17.66-2.057-26.201-1.319
				c-8.24,0.713-16.58,2.229-24.867,2.109c-8.896-0.127-18.043-0.931-26.81-2.419c-0.09-0.016-0.182-0.032-0.275-0.048v39.48
				c4.348-0.22,8.684-0.579,12.992-1.065C31.012,140.935,49.09,136.883,65.953,130.086z"/>
			<path style="opacity:0.5;fill:#ACEBFF;" d="M275.898,150.27c5.121-3.756,12.137-4.583,18.281-5.131
				c8.234-0.733,16.514-0.641,24.764-1.114c24.983-1.435,49.313-7.495,74-11.132v-7.768c-13.146,1.053-26.246,2.657-39.275,4.692
				c-12.646,1.976-25.195,4.739-37.932,6.095c-32.672,3.476-65.367-0.247-98.021-1.947c-16.197-0.844-32.672-1.518-48.828,0.242
				c-14.945,1.627-29.568,5.233-43.832,9.925c-13.781,4.533-27.254,9.922-40.828,15.02c-13.354,5.014-26.818,10.031-40.873,12.68
				c-14.232,2.684-28.787,3.853-43.354,3.834v13.285c0.482,0.029,0.965,0.056,1.445,0.086c7.644,0.471,15.273,1.198,22.926,1.561
				c5.145,0.243,10.16,0.327,15.178-0.923c6.42-1.6,12.742-3.581,19.129-5.307c7.273-1.966,14.734-4.019,22.275-4.612
				c3.791-0.3,8.666-0.58,10.412,3.504c2.84,6.633-3.719,13.536-8.133,17.604c-8.969,8.271-19.773,14.605-30.424,20.438
				c-13.117,7.186-26.67,13.574-40.393,19.513c-4.119,1.782-8.262,3.513-12.416,5.216v17.192
				c20.152-2.102,38.641-12.426,54.672-24.337c18.133-13.475,34.16-29.527,49.844-45.718c6.828-7.051,13.586-14.179,20.592-21.059
				c8.467-8.32,17.965-15.175,28.928-19.855c10.875-4.645,22.479-7.379,34.242-8.487c11.625-1.096,24.23-1.583,35.623,1.421
				c20.898,5.512,36.002,21.615,50.609,36.542c7.387,7.548,14.832,15.173,23.551,21.203c8.318,5.755,17.33,10.48,26.643,14.414
				c20.766,8.773,43.104,14.216,65.527,16.423c0.902,0.088,1.807,0.168,2.713,0.247v-14.912c-2.824-0.214-5.654-0.407-8.49-0.535
				c-9.902-0.448-19.846-0.781-29.666-2.214c-22.807-3.328-45.488-13.301-63.158-28.165c-7.484-6.296-15.129-14.091-18.635-23.429
				C271.043,159.559,271.059,153.819,275.898,150.27z"/>
			<path style="opacity:0.5;fill:#ACEBFF;" d="M301.449,258.919c-11.395-3.838-21.654-9.28-31.965-15.378
				c-10.752-6.356-21.82-12.259-33.396-16.98c-22.611-9.222-47.174-13.862-71.617-12.025c-39.1,2.939-71.318,27.197-102.76,48.261
				c-15.482,10.374-31.375,20.534-48.775,27.412c-4.25,1.68-8.568,3.127-12.936,4.329v16.837c5.736-2.264,11.408-4.714,17.131-6.874
				c12.561-4.741,24.762-10.539,36.008-17.904c21.264-13.924,38.592-35.425,63.67-42.938c12.746-3.818,26.062-3.016,38.943-0.222
				c13.863,3.008,27.266,7.961,40.258,13.596c12.852,5.572,24.234,13.722,36.076,21.078c12.373,7.688,25.307,14.121,39.674,17.048
				c30.191,6.151,61.545,1.868,91.57-3.099c9.879-1.635,19.736-3.429,29.613-5.082v-25.153
				C363.063,269.581,330.58,268.728,301.449,258.919z M298.85,281.868c-1.129,1.695-3.158,2.506-5.08,2.925
				c-3.922,0.855-8.078,0.783-12.059,0.482c-11.221-0.85-21.992-4.739-32.072-9.568c-11.018-5.277-21.432-11.68-31.779-18.148
				c-4.445-2.78-8.848-5.94-13.557-8.257c-3.674-1.807-7.369-3.589-10.887-5.688c-4.76-2.842-13.668-8.238-11.09-15.063
				c2.771-7.335,13.238-6.618,19.365-5.55c1.49,0.26,2.973,0.582,4.451,0.932c2.65,0.122,5.291,0.569,7.865,1.198
				c9.713,2.375,18.898,6.732,27.766,11.264c7.762,3.965,15.482,8.031,23.199,12.074c5.27,2.761,10.273,6.11,15.078,9.605
				c5.389,3.918,10.836,8.119,15.174,13.214C297.322,273.752,301.143,278.426,298.85,281.868z"/>
			<path style="opacity:0.5;fill:#ACEBFF;" d="M337.73,324.593c8.357-0.753,16.566,2.142,24.738,3.359
				c6.891,1.026,13.654,2.123,20.611,2.694c3.211,0.263,6.633-0.186,9.863,0.208v-4.175c-11.58-0.923-23.15-2-34.723-2.95
				c-26.438-2.17-53.43-4.077-79.883-1.072c-28.174,3.199-56.402,7.609-84.83,7.286c-14.141-0.16-28.27-1.445-42.148-4.198
				c-12.455-2.471-24.66-5.765-36.941-8.954c-12.699-3.298-25.656-6.42-38.818-6.972c-6.365-0.267-12.813-0.018-19.063,1.32
				c-6,1.286-11.772,3.58-17.375,6.041C26.211,322.866,13.457,329.833,0,333.658v6.78c1.357-0.374,2.713-0.752,4.07-1.123
				c25.615-6.998,53.389-13.392,79.104-3.328c22.514,8.811,44.607,20.44,68.834,23.766c27.674,3.798,55.074-4.729,81.805-10.83
				c13.5-3.081,27.094-5.93,40.875-7.403c14.658-1.567,29.178-1.226,43.82,0.324c24.84,2.628,49.435,7.635,74.435,8.556v-4.022
				c-7.113-0.564-14.215-1.643-21.217-2.538c-8.32-1.062-16.301-1.722-24.404-3.982c-5.119-1.428-12.24-3.086-15.813-7.391
				C328.102,328.362,334.23,324.908,337.73,324.593z M196.92,349.42c-7.377,2.564-15.322,3.6-23.074,4.256
				c-8.719,0.739-17.424,0.595-26.078-0.855c-10.26-1.72-21.461-4.507-29.701-11.2c-2.615-2.123-5.916-5.087-6.279-8.682
				c-0.311-3.076,1.686-6.011,4.781-6.568c4.008-0.723,8.24,0.229,12.146,1.123c5.668,1.299,11.434,1.986,17.18,2.876
				c6.781,1.052,13.559,2.145,20.342,3.188c1.381-0.081,2.762-0.15,4.143-0.191c8.256-0.243,16.742-0.381,24.9,1.096
				c3.371,0.61,9.646,1.721,10.641,5.814C207.145,345.307,200.615,348.135,196.92,349.42z"/>
			<path style="opacity:0.5;fill:#ACEBFF;" d="M351.494,365.344c-10.236-0.091-20.522,0.063-30.689,1.358
				c-10.531,1.343-21.023,3.039-31.504,4.723c-27.912,4.482-55.852,9.315-84.111,10.955c-29.068,1.686-58.418,0.122-87.369-2.677
				c-14.266-1.379-28.494-3.126-42.67-5.238c-13.477-2.008-26.84-4.848-40.361-6.53c-11.488-1.429-23.246-2.048-34.789-1.104v26.11
				h392.943V365.51C379.156,366.16,365.287,365.465,351.494,365.344z"/>
		</g>
	</g>
	<path style="fill:#FFFFFF;" d="M301.916,355.59c-5.465,1.449-5.363,4.89-3.174,7.405c0.23,0.348,0.479,0.658,0.725,0.908
		c1.064,1.105,4.127,2.797,7.258,2.278c3.527-0.586,5.367-2.022,6.188-3.564C314.289,360.037,310.701,353.259,301.916,355.59z"/>
	<path style="fill:#FFFFFF;" d="M229.943,374.595c-2.318,0.615-2.275,2.075-1.346,3.144c0.096,0.147,0.201,0.279,0.307,0.386
		c0.451,0.469,1.752,1.188,3.082,0.967c1.498-0.249,2.277-0.858,2.627-1.514C235.197,376.482,233.674,373.604,229.943,374.595z"/>
	<path style="fill:#FFFFFF;" d="M340.912,300.442c-3.918,1.039-3.842,3.503-2.275,5.305c0.164,0.249,0.344,0.473,0.52,0.651
		c0.762,0.791,2.959,2.004,5.199,1.632c2.529-0.42,3.846-1.448,4.434-2.554C349.775,303.629,347.205,298.772,340.912,300.442z"/>
	<path style="fill:#FFFFFF;" d="M68.631,292.441c-3.916,1.039-3.844,3.502-2.275,5.305c0.164,0.25,0.344,0.473,0.52,0.65
		c0.762,0.792,2.957,2.005,5.199,1.633c2.529-0.42,3.846-1.448,4.434-2.554C77.494,295.627,74.922,290.772,68.631,292.441z"/>
	<path style="fill:#FFFFFF;" d="M40.02,350.189c-2.951,0.783-2.895,2.639-1.715,3.996c0.125,0.189,0.258,0.355,0.393,0.491
		c0.572,0.596,2.227,1.51,3.918,1.229c1.902-0.315,2.896-1.09,3.338-1.923C46.697,352.59,44.76,348.931,40.02,350.189z"/>
	<path style="fill:#FFFFFF;" d="M132.938,335.469c-2.951,0.782-2.895,2.638-1.715,3.996c0.125,0.188,0.258,0.354,0.393,0.49
		c0.574,0.597,2.227,1.51,3.918,1.229c1.902-0.315,2.896-1.091,3.338-1.924C139.615,337.868,137.678,334.21,132.938,335.469z"/>
	<path style="fill:#FFFFFF;" d="M334.666,67.209c-5.465,1.45-5.361,4.89-3.174,7.405c0.23,0.349,0.48,0.658,0.725,0.908
		c1.064,1.104,4.129,2.797,7.26,2.278c3.527-0.586,5.367-2.021,6.188-3.564C347.039,71.656,343.451,64.878,334.666,67.209z"/>
	<path style="fill:#FFFFFF;" d="M361.422,67.879c-2.318,0.615-2.275,2.075-1.346,3.143c0.096,0.148,0.201,0.28,0.307,0.386
		c0.451,0.47,1.752,1.188,3.082,0.968c1.498-0.249,2.277-0.858,2.627-1.514C366.676,69.767,365.152,66.889,361.422,67.879z"/>
	<path style="fill:#FFFFFF;" d="M109.906,21.132c-2.32,0.615-2.277,2.075-1.348,3.144c0.098,0.147,0.203,0.279,0.307,0.385
		c0.453,0.47,1.754,1.188,3.082,0.968c1.498-0.249,2.279-0.858,2.627-1.514C115.158,23.02,113.635,20.142,109.906,21.132z"/>
	<path style="fill:#FFFFFF;" d="M26.943,212.547c-3.783,1.004-3.713,3.385-2.197,5.126c0.158,0.241,0.332,0.457,0.5,0.629
		c0.738,0.765,2.859,1.937,5.027,1.578c2.441-0.406,3.717-1.399,4.285-2.468C35.51,215.626,33.025,210.933,26.943,212.547z"/>
	<path style="fill:#FFFFFF;" d="M43.605,197.274c-3.566,0.946-3.502,3.19-2.07,4.832c0.149,0.229,0.313,0.432,0.471,0.594
		c0.695,0.721,2.695,1.826,4.738,1.488c2.305-0.384,3.506-1.319,4.041-2.327C51.684,200.178,49.34,195.753,43.605,197.274z"/>
	<path style="fill:#FFFFFF;" d="M225.813,200.919c-3.568,0.947-3.502,3.191-2.072,4.833c0.15,0.228,0.313,0.431,0.473,0.594
		c0.695,0.721,2.695,1.825,4.738,1.487c2.303-0.383,3.504-1.319,4.041-2.326C233.889,203.822,231.545,199.398,225.813,200.919z"/>
	<path style="fill:#FFFFFF;" d="M245.422,188.646c-2.543,0.676-2.496,2.275-1.477,3.445c0.105,0.163,0.221,0.309,0.336,0.424
		c0.496,0.514,1.922,1.302,3.379,1.061c1.643-0.273,2.498-0.941,2.879-1.659C251.182,190.717,249.51,187.563,245.422,188.646z"/>
	<path style="fill:#FFFFFF;" d="M360.246,187.518c-4.408,1.171-4.328,3.943-2.561,5.972c0.184,0.283,0.385,0.533,0.584,0.734
		c0.857,0.89,3.33,2.255,5.853,1.838c2.848-0.474,4.332-1.631,4.994-2.875C370.227,191.105,367.33,185.639,360.246,187.518z"/>
	<path style="fill:#FFFFFF;" d="M340.912,30.631c-3.918,1.038-3.842,3.502-2.275,5.304c0.164,0.25,0.344,0.473,0.52,0.651
		c0.762,0.791,2.959,2.004,5.199,1.632c2.529-0.419,3.846-1.448,4.434-2.554C349.775,33.816,347.205,28.96,340.912,30.631z"/>
	<path style="fill:#FFFFFF;" d="M68.631,22.63c-3.916,1.038-3.844,3.502-2.275,5.304c0.164,0.25,0.344,0.473,0.52,0.651
		c0.762,0.791,2.957,2.004,5.199,1.632c2.529-0.419,3.846-1.448,4.434-2.554C77.494,25.815,74.922,20.959,68.631,22.63z"/>
	<path style="fill:#FFFFFF;" d="M40.02,80.378c-2.951,0.782-2.895,2.639-1.715,3.996c0.125,0.188,0.258,0.355,0.393,0.49
		c0.572,0.597,2.227,1.51,3.918,1.229c1.902-0.315,2.896-1.091,3.338-1.924C46.697,82.777,44.76,79.119,40.02,80.378z"/>
	<path style="fill:#FFFFFF;" d="M132.938,65.656c-2.951,0.782-2.895,2.639-1.715,3.996c0.125,0.188,0.258,0.355,0.393,0.49
		c0.574,0.597,2.227,1.51,3.918,1.229c1.902-0.315,2.896-1.091,3.338-1.924C139.615,68.057,137.678,64.397,132.938,65.656z"/>
</g>
</svg>
