<svg xmlns="http://www.w3.org/2000/svg" width="1081" height="652" viewBox="0 0 1081 652" version="1.1"><path d="M 415 1.276 C 415 1.978, 415.475 6.337, 416.054 10.962 C 416.634 15.588, 418.896 26.376, 421.080 34.936 C 423.264 43.496, 428.174 60.625, 431.992 73 C 435.810 85.375, 445.967 116.425, 454.564 142 C 463.161 167.575, 477.603 210.550, 486.657 237.500 C 495.710 264.450, 503.560 288.260, 504.100 290.411 C 504.640 292.562, 507.715 302.912, 510.932 313.411 C 514.150 323.910, 518.829 339.925, 521.331 349 C 523.832 358.075, 526.372 368.425, 526.973 372 C 527.575 375.575, 528.474 379.400, 528.971 380.500 C 529.467 381.600, 530.324 386.775, 530.874 392 C 531.424 397.225, 532.601 405.325, 533.489 410 C 534.377 414.675, 535.586 423.450, 536.175 429.500 C 536.764 435.550, 537.304 445.914, 537.373 452.531 C 537.490 463.565, 537.290 464.973, 534.968 469.531 C 533.134 473.130, 531.353 475.033, 528.509 476.432 C 524.765 478.274, 523.451 478.316, 500.341 477.314 C 482.654 476.548, 474.793 476.566, 471.262 477.382 C 468.600 477.997, 465.254 479.400, 463.826 480.500 C 462.398 481.600, 459.627 484.824, 457.668 487.664 C 454.184 492.715, 454.093 493.098, 453.481 505.164 C 453.137 511.949, 453.273 521.344, 453.783 526.043 C 454.292 530.741, 455.383 536.141, 456.206 538.043 C 457.029 539.944, 458.643 544.425, 459.792 548 C 460.941 551.575, 462.426 556.075, 463.090 558 C 463.755 559.925, 464.650 562.400, 465.080 563.500 C 465.509 564.600, 467.049 568.425, 468.501 572 C 469.954 575.575, 471.786 579.774, 472.571 581.331 C 473.357 582.888, 474.003 584.913, 474.006 585.831 C 474.010 586.749, 474.610 588.625, 475.341 590 C 476.072 591.375, 477.918 594.975, 479.442 598 C 480.967 601.025, 482.806 604.850, 483.529 606.500 C 484.252 608.150, 488.817 618.826, 493.672 630.224 L 502.500 650.947 590.525 650.974 L 678.549 651 679.723 643.621 C 680.369 639.563, 681.859 633.375, 683.033 629.871 C 684.208 626.367, 688.475 616.703, 692.514 608.396 C 696.554 600.089, 702.028 590.393, 704.680 586.850 C 707.331 583.307, 711.184 577.954, 713.242 574.954 C 715.300 571.954, 719.023 567.250, 721.515 564.500 C 724.007 561.750, 727.076 557.925, 728.335 556 C 729.594 554.075, 732.324 549.934, 734.401 546.797 C 736.479 543.660, 739.167 540.060, 740.374 538.797 C 741.581 537.534, 744.372 534.250, 746.575 531.500 C 748.779 528.750, 753.079 522.675, 756.130 518 C 759.181 513.325, 763.414 506.350, 765.536 502.500 C 767.658 498.650, 771.238 492.575, 773.491 489 C 775.743 485.425, 779.226 478.675, 781.231 474 C 783.235 469.325, 785.986 462.575, 787.345 459 C 788.704 455.425, 791.679 446.875, 793.957 440 C 796.235 433.125, 798.805 423, 799.667 417.500 C 800.530 412, 801.392 399.625, 801.582 390 C 801.773 380.375, 802.151 354.725, 802.422 333 C 802.693 311.275, 803.165 288.185, 803.470 281.688 C 803.775 275.192, 804.496 266.642, 805.071 262.688 C 805.647 258.735, 806.290 237.050, 806.501 214.500 C 806.767 186.017, 807.360 169.426, 808.442 160.155 C 809.299 152.815, 809.795 146.477, 809.543 146.070 C 809.292 145.664, 809.461 142.219, 809.918 138.415 C 810.375 134.612, 811.932 125.650, 813.378 118.500 C 814.823 111.350, 816.640 102.575, 817.415 99 C 818.190 95.425, 819.315 89.217, 819.916 85.205 C 820.517 81.193, 821.955 75.118, 823.112 71.705 C 824.269 68.292, 825.863 63.025, 826.654 60 C 827.445 56.975, 830.314 50, 833.030 44.500 C 835.745 39, 838.593 31.575, 839.357 28 C 840.122 24.425, 842.102 18.538, 843.756 14.919 C 845.411 11.299, 848.168 6.739, 849.883 4.787 C 851.597 2.834, 853 0.958, 853 0.618 C 853 0.278, 754.450 0, 634 0 C 457.066 0, 415 0.245, 415 1.276 M 0.102 335.750 L 0.058 651 99.091 651 L 198.124 651 194.994 646.642 C 193.273 644.244, 185.100 633.557, 176.833 622.892 C 168.566 612.226, 159.408 600.575, 156.483 597 C 153.558 593.425, 146.516 584.650, 140.834 577.500 C 135.151 570.350, 129.959 563.825, 129.295 563 C 128.631 562.175, 125.596 558.350, 122.550 554.500 C 119.503 550.650, 117.009 546.938, 117.006 546.250 C 117.003 545.563, 116.624 545, 116.164 545 C 115.705 545, 111.767 540.407, 107.414 534.793 C 103.061 529.179, 98.193 522.542, 96.595 520.043 C 94.997 517.544, 90.467 511.225, 86.528 506 C 82.590 500.775, 74.415 489.525, 68.362 481 C 62.310 472.475, 52.977 458.614, 47.622 450.198 C 42.267 441.781, 35.457 430.306, 32.489 424.698 C 29.521 419.089, 25.007 409.775, 22.460 404 C 19.912 398.225, 16.796 390.350, 15.535 386.500 C 14.273 382.650, 12.673 374.295, 11.979 367.933 C 10.985 358.830, 10.971 354.623, 11.914 348.179 C 12.572 343.676, 13.926 337.621, 14.923 334.723 C 15.920 331.826, 17.900 327.157, 19.324 324.347 C 20.748 321.538, 24.584 315.698, 27.850 311.370 C 31.116 307.041, 34.861 302.375, 36.171 301 C 37.482 299.625, 40.342 297.077, 42.527 295.337 C 44.712 293.598, 49.200 290.146, 52.500 287.666 C 55.800 285.186, 59.236 282.499, 60.135 281.694 C 61.034 280.888, 63.280 279.166, 65.125 277.865 C 66.970 276.564, 71.169 273.025, 74.456 270 C 77.743 266.975, 82.584 262.250, 85.214 259.500 C 87.843 256.750, 90.559 253.786, 91.247 252.912 C 91.936 252.039, 93.064 250.464, 93.752 249.412 C 94.441 248.361, 96.374 244.800, 98.047 241.500 C 99.797 238.049, 101.576 232.390, 102.235 228.180 C 103.106 222.611, 103.095 218.886, 102.188 212.610 C 101.531 208.072, 99.692 200.566, 98.101 195.930 C 96.509 191.293, 94.083 185.007, 92.709 181.959 C 91.334 178.912, 86.857 170.587, 82.758 163.459 C 78.658 156.332, 71.718 144.875, 67.335 138 C 62.952 131.125, 54.636 118.075, 48.855 109 C 43.073 99.925, 36.312 89.125, 33.830 85 C 31.347 80.875, 25.797 71.200, 21.496 63.500 C 17.194 55.800, 11.146 44.100, 8.054 37.500 C 4.963 30.900, 1.919 24.375, 1.290 23 C 0.429 21.118, 0.136 98.399, 0.102 335.750" stroke="none" fill="#80b1ff" fill-rule="evenodd"/><path d="M 0 9.769 L 0 19.538 6.521 33.519 C 10.108 41.209, 16.128 53.130, 19.898 60.011 C 23.669 66.891, 29.579 77.241, 33.032 83.011 C 36.484 88.780, 48.177 107.450, 59.016 124.500 C 69.854 141.550, 80.751 159.100, 83.231 163.500 C 85.710 167.900, 89.399 174.803, 91.427 178.840 C 93.456 182.877, 96.718 190.970, 98.678 196.824 C 101.512 205.295, 102.346 209.566, 102.764 217.743 C 103.238 227.037, 103.028 228.818, 100.557 236.414 C 99.055 241.032, 97.077 245.651, 96.163 246.679 C 95.248 247.706, 92.969 250.787, 91.099 253.524 C 89.228 256.261, 84.953 261.143, 81.599 264.374 C 78.244 267.604, 72.350 272.779, 68.500 275.874 C 64.650 278.968, 61.350 281.837, 61.167 282.250 C 60.983 282.663, 60.266 283, 59.572 283 C 58.879 283, 55.831 285.138, 52.801 287.750 C 49.770 290.363, 46.212 293.171, 44.895 293.992 C 43.578 294.812, 39.655 298.412, 36.177 301.992 C 32.699 305.571, 27.345 312.250, 24.279 316.834 C 20.946 321.817, 17.492 328.653, 15.690 333.834 C 13.311 340.675, 12.582 344.711, 12.226 353 C 11.978 358.775, 12.252 367.325, 12.834 372 C 13.417 376.675, 14.783 383.200, 15.869 386.500 C 16.956 389.800, 19.043 395.425, 20.508 399 C 21.973 402.575, 26.049 411.227, 29.565 418.227 C 33.081 425.227, 38.951 435.796, 42.609 441.713 C 46.266 447.631, 52.721 457.654, 56.953 463.986 C 61.184 470.319, 68.842 481.350, 73.971 488.500 C 79.099 495.650, 86.130 505.189, 89.595 509.697 C 93.060 514.206, 96.604 519.156, 97.472 520.697 C 98.339 522.239, 102.416 527.775, 106.531 533 C 110.647 538.225, 116.148 545.348, 118.757 548.830 C 121.366 552.311, 127.192 559.736, 131.705 565.330 C 136.218 570.923, 141.691 577.750, 143.867 580.500 C 146.043 583.250, 149.799 587.975, 152.215 591 C 154.630 594.025, 163.782 605.748, 172.553 617.051 C 181.324 628.354, 190.750 640.606, 193.500 644.276 L 198.500 650.950 305.196 650.975 L 411.892 651 410.044 645.750 C 409.028 642.863, 405.952 634.200, 403.209 626.500 C 400.466 618.800, 395.521 605.750, 392.220 597.500 C 388.918 589.250, 382.078 572.375, 377.018 560 C 371.959 547.625, 367.386 535.718, 366.857 533.539 C 366.328 531.361, 365.469 529.065, 364.948 528.437 C 364.427 527.810, 362.938 524.417, 361.638 520.898 C 360.339 517.379, 358.033 511.350, 356.515 507.500 C 354.997 503.650, 353.082 498.700, 352.260 496.500 C 351.438 494.300, 349.918 490.864, 348.883 488.864 C 347.847 486.864, 347 484.421, 347 483.435 C 347 482.449, 346.440 480.035, 345.755 478.071 C 345.071 476.107, 344.221 474.275, 343.867 474 C 343.513 473.725, 341.389 467.753, 339.146 460.728 C 336.903 453.704, 334.133 442.904, 332.990 436.728 C 331.847 430.553, 330.145 422.125, 329.206 418 C 327.958 412.513, 327.500 405.925, 327.500 393.455 C 327.500 378.906, 327.756 376.019, 329.250 373.740 C 330.213 372.272, 331 370.471, 331 369.738 C 331 369.005, 332.706 366.740, 334.792 364.703 C 336.878 362.666, 339.049 361, 339.618 361 C 340.186 361, 341.742 359.813, 343.076 358.361 C 344.409 356.910, 349.805 352.920, 355.066 349.496 C 360.328 346.071, 366.074 341.521, 367.837 339.385 C 369.599 337.248, 371.992 333.025, 373.155 330 C 374.671 326.057, 375.360 321.668, 375.589 314.500 C 375.785 308.334, 375.320 301.433, 374.375 296.500 C 373.533 292.100, 371.556 284, 369.983 278.500 C 368.410 273, 365.471 264.675, 363.451 260 C 361.432 255.325, 356.862 244.975, 353.295 237 C 349.728 229.025, 346.228 220.611, 345.518 218.302 C 344.808 215.993, 343.276 212.895, 342.114 211.417 C 340.951 209.939, 340 208.150, 340 207.442 C 340 206.733, 338.955 204.881, 337.678 203.327 C 336.401 201.772, 332.971 196, 330.055 190.500 C 327.138 185, 320.695 173.075, 315.735 164 C 310.775 154.925, 303.008 140.750, 298.474 132.500 C 293.940 124.250, 284.808 106.925, 278.180 94 C 271.553 81.075, 262.515 62.268, 258.097 52.206 C 253.678 42.144, 248.312 28.644, 246.171 22.206 C 244.030 15.768, 241.721 8.138, 241.040 5.250 L 239.801 0 119.900 0 L 0 0 0 9.769 M 851.378 3.835 C 849.661 5.851, 846.824 10.347, 845.075 13.827 C 843.325 17.307, 840.988 23.832, 839.881 28.327 C 838.774 32.822, 835.879 40.550, 833.448 45.500 C 831.017 50.450, 827.432 59.675, 825.482 66 C 823.531 72.325, 821.236 81.550, 820.381 86.500 C 819.525 91.450, 817.986 99.550, 816.961 104.500 C 815.936 109.450, 814.183 118.225, 813.067 124 C 811.951 129.775, 810.816 136.975, 810.545 140 C 810.273 143.025, 809.769 149.775, 809.425 155 C 809.080 160.225, 808.456 168.325, 808.038 173 C 807.619 177.675, 807.204 196.803, 807.115 215.507 C 807.026 234.211, 806.754 251.536, 806.511 254.007 C 806.269 256.478, 805.783 261.200, 805.433 264.500 C 805.082 267.800, 804.464 276.800, 804.059 284.500 C 803.654 292.200, 803.240 314.058, 803.138 333.074 C 803.036 352.089, 802.756 368.673, 802.514 369.927 C 802.273 371.180, 802.005 380.597, 801.919 390.853 C 801.813 403.407, 801.194 412.767, 800.024 419.500 C 799.068 425, 796.463 434.900, 794.234 441.500 C 792.005 448.100, 788.608 457.550, 786.684 462.500 C 784.759 467.450, 782.006 474.129, 780.565 477.342 C 779.123 480.555, 776.472 485.505, 774.672 488.342 C 772.873 491.179, 769.661 496.650, 767.536 500.500 C 765.410 504.350, 760.817 511.875, 757.328 517.222 C 753.839 522.569, 747.256 531.569, 742.699 537.222 C 738.142 542.875, 733.223 549.525, 731.768 552 C 730.313 554.475, 725.382 561.090, 720.811 566.700 C 716.240 572.310, 709.894 580.539, 706.709 584.986 C 703.523 589.434, 697.722 599.469, 693.818 607.287 C 689.913 615.104, 685.628 624.650, 684.296 628.500 C 682.964 632.350, 681.282 638.526, 680.558 642.224 C 679.578 647.233, 679.530 649.279, 680.371 650.243 C 681.288 651.294, 708.969 651.471, 827.573 651.186 L 973.646 650.834 975.826 641.667 C 977.025 636.625, 978.915 627.112, 980.024 620.528 C 981.134 613.943, 982.708 601.608, 983.521 593.117 C 984.378 584.176, 984.976 567.751, 984.944 554.089 C 984.913 541.115, 984.474 526, 983.967 520.500 C 983.461 515, 982.757 507.800, 982.401 504.500 C 982.046 501.200, 981.398 498.049, 980.961 497.498 C 980.524 496.947, 980.167 494.383, 980.167 491.800 C 980.167 489.217, 979.633 484.493, 978.981 481.302 C 978.328 478.111, 977.420 474.600, 976.962 473.500 C 976.504 472.400, 975.840 468.467, 975.486 464.761 C 975.132 461.054, 974.428 457.765, 973.922 457.452 C 973.415 457.138, 973 455.409, 973 453.608 C 973 451.807, 972.682 450.015, 972.292 449.626 C 971.903 449.236, 971.457 445.714, 971.301 441.797 C 971.131 437.536, 970.461 434.039, 969.632 433.088 C 968.781 432.112, 968.184 428.837, 968.085 424.593 C 967.996 420.794, 967.711 417.342, 967.452 416.922 C 967.192 416.501, 966.723 414.660, 966.410 412.829 C 966.097 410.998, 965.659 407.925, 965.437 406 C 965.214 404.075, 964.631 400.250, 964.141 397.500 C 963.651 394.750, 962.502 387.777, 961.587 382.004 C 960.673 376.232, 959.229 365.432, 958.380 358.004 C 957.481 350.148, 956.608 331.043, 956.293 312.324 C 955.944 291.627, 956.172 274.858, 956.931 265.324 C 957.580 257.171, 958.767 245.325, 959.569 239 C 960.371 232.675, 962.193 220.975, 963.618 213 C 965.043 205.025, 968.412 189.670, 971.104 178.878 C 973.797 168.086, 977.845 153.461, 980.100 146.378 C 982.356 139.295, 986.915 126.300, 990.232 117.500 C 993.549 108.700, 999.184 94.750, 1002.753 86.500 C 1006.322 78.250, 1013.743 62.500, 1019.242 51.500 C 1024.742 40.500, 1033.065 24.750, 1037.739 16.500 C 1042.413 8.250, 1046.435 1.163, 1046.678 0.750 C 1046.920 0.337, 1003.779 0.038, 950.809 0.085 L 854.500 0.169 851.378 3.835 M 1075.500 288.837 C 1073.850 289.843, 1071.046 292.323, 1069.269 294.347 C 1067.491 296.371, 1065.404 299.258, 1064.630 300.763 C 1063.855 302.269, 1062.284 306.548, 1061.137 310.272 C 1059.990 313.997, 1058.552 322.043, 1057.941 328.152 C 1057.131 336.257, 1057.127 343.345, 1057.928 354.379 C 1058.532 362.696, 1059.930 375.575, 1061.034 383 C 1062.138 390.425, 1064.622 404.375, 1066.553 414 C 1068.484 423.625, 1072.132 439.600, 1074.661 449.500 C 1077.190 459.400, 1079.637 468.175, 1080.099 469 C 1080.561 469.825, 1080.953 429.212, 1080.970 378.750 C 1080.994 305.999, 1080.741 287.001, 1079.750 287.004 C 1079.063 287.006, 1077.150 287.831, 1075.500 288.837" stroke="none" fill="#95eefd" fill-rule="evenodd"/><path d="M 240 0.871 C 240 1.350, 241.284 6.187, 242.853 11.621 C 244.422 17.054, 246.847 24.650, 248.242 28.500 C 249.637 32.350, 254.231 43.375, 258.452 53 C 262.672 62.625, 271.549 81.075, 278.178 94 C 284.807 106.925, 293.940 124.250, 298.474 132.500 C 303.008 140.750, 310.775 154.925, 315.735 164 C 320.695 173.075, 327.138 185, 330.055 190.500 C 332.971 196, 336.401 201.772, 337.678 203.327 C 338.955 204.881, 340 206.733, 340 207.442 C 340 208.150, 340.951 209.939, 342.114 211.417 C 343.276 212.895, 344.808 215.993, 345.518 218.302 C 346.228 220.611, 349.728 229.025, 353.295 237 C 356.862 244.975, 361.432 255.325, 363.451 260 C 365.471 264.675, 368.410 273, 369.983 278.500 C 371.556 284, 373.533 292.100, 374.375 296.500 C 375.320 301.433, 375.785 308.334, 375.589 314.500 C 375.360 321.668, 374.671 326.057, 373.155 330 C 371.992 333.025, 369.599 337.248, 367.837 339.385 C 366.074 341.521, 360.328 346.071, 355.066 349.496 C 349.805 352.920, 344.409 356.910, 343.076 358.361 C 341.742 359.813, 340.146 361, 339.529 361 C 338.911 361, 336.740 362.706, 334.703 364.792 C 332.666 366.878, 331 369.144, 331 369.827 C 331 370.511, 330.212 372.272, 329.250 373.740 C 327.756 376.019, 327.500 378.906, 327.500 393.455 C 327.500 405.925, 327.958 412.513, 329.206 418 C 330.145 422.125, 331.847 430.553, 332.990 436.728 C 334.133 442.904, 336.903 453.704, 339.146 460.728 C 341.389 467.753, 343.513 473.725, 343.867 474 C 344.221 474.275, 345.071 476.107, 345.755 478.071 C 346.440 480.035, 347 482.449, 347 483.435 C 347 484.421, 347.847 486.864, 348.883 488.864 C 349.918 490.864, 351.438 494.300, 352.260 496.500 C 353.082 498.700, 354.997 503.650, 356.515 507.500 C 358.033 511.350, 360.339 517.379, 361.638 520.898 C 362.938 524.417, 364.427 527.810, 364.948 528.437 C 365.469 529.065, 366.325 531.361, 366.851 533.539 C 367.376 535.718, 372.603 549.200, 378.465 563.500 C 384.328 577.800, 390.727 593.550, 392.685 598.500 C 394.644 603.450, 399.738 617.175, 404.006 629 L 411.766 650.500 456.883 650.760 C 481.697 650.903, 502.006 650.678, 502.013 650.260 C 502.020 649.842, 498.157 640.500, 493.429 629.500 C 488.700 618.500, 484.243 608.150, 483.523 606.500 C 482.803 604.850, 480.967 601.025, 479.442 598 C 477.918 594.975, 476.072 591.375, 475.341 590 C 474.610 588.625, 474.010 586.749, 474.006 585.831 C 474.003 584.913, 473.357 582.888, 472.571 581.331 C 471.786 579.774, 469.954 575.575, 468.501 572 C 467.049 568.425, 465.509 564.600, 465.080 563.500 C 464.650 562.400, 463.755 559.925, 463.090 558 C 462.426 556.075, 460.941 551.575, 459.792 548 C 458.643 544.425, 457.029 539.944, 456.206 538.043 C 455.383 536.141, 454.292 530.741, 453.783 526.043 C 453.273 521.344, 453.137 511.949, 453.481 505.164 C 454.093 493.098, 454.184 492.715, 457.668 487.664 C 459.627 484.824, 462.398 481.600, 463.826 480.500 C 465.254 479.400, 468.600 477.997, 471.262 477.382 C 474.793 476.566, 482.654 476.548, 500.341 477.314 C 523.451 478.316, 524.765 478.274, 528.509 476.432 C 531.353 475.033, 533.134 473.130, 534.968 469.531 C 537.290 464.973, 537.490 463.565, 537.373 452.531 C 537.304 445.914, 536.764 435.550, 536.175 429.500 C 535.586 423.450, 534.377 414.675, 533.489 410 C 532.601 405.325, 531.424 397.225, 530.874 392 C 530.324 386.775, 529.467 381.600, 528.971 380.500 C 528.474 379.400, 527.575 375.575, 526.973 372 C 526.372 368.425, 523.832 358.075, 521.331 349 C 518.829 339.925, 514.150 323.910, 510.932 313.411 C 507.715 302.912, 504.640 292.562, 504.100 290.411 C 503.560 288.260, 495.710 264.450, 486.657 237.500 C 477.603 210.550, 463.161 167.575, 454.564 142 C 445.967 116.425, 435.810 85.375, 431.992 73 C 428.174 60.625, 423.264 43.496, 421.080 34.936 C 418.896 26.376, 416.634 15.588, 416.054 10.962 C 415.475 6.337, 415 1.978, 415 1.276 C 415 0.251, 397.793 0, 327.500 0 C 278.483 0, 240 0.383, 240 0.871 M 1039.316 14.250 C 1034.878 22.088, 1027.857 35.025, 1023.713 43 C 1019.570 50.975, 1013.393 63.575, 1009.987 71 C 1006.581 78.425, 1000.402 92.825, 996.257 103 C 992.111 113.175, 987.186 126, 985.311 131.500 C 983.436 137, 979.494 149.825, 976.550 160 C 973.607 170.175, 969.819 184.575, 968.133 192 C 966.447 199.425, 963.946 212.475, 962.577 221 C 961.207 229.525, 959.600 241, 959.006 246.500 C 958.412 252, 957.527 261.675, 957.038 268 C 956.550 274.325, 956.296 292.550, 956.474 308.500 C 956.657 324.919, 957.487 344.499, 958.387 353.633 C 959.262 362.507, 960.689 374.875, 961.560 381.117 C 962.431 387.360, 963.549 392.957, 964.045 393.555 C 964.542 394.153, 964.931 395.960, 964.910 397.571 C 964.890 399.182, 965.340 403.200, 965.911 406.500 C 966.482 409.800, 967.410 414.072, 967.974 415.993 C 968.538 417.915, 969 422.490, 969 426.160 C 969 430.049, 969.451 432.984, 970.080 433.193 C 970.674 433.391, 971.540 437.141, 972.005 441.527 C 972.469 445.912, 973.276 451.300, 973.797 453.500 C 974.318 455.700, 975.252 458.767, 975.872 460.315 C 976.492 461.863, 977 465.324, 977 468.006 C 977 470.688, 977.383 473.119, 977.851 473.408 C 978.318 473.697, 979.253 478.786, 979.927 484.717 C 980.601 490.647, 981.996 499.153, 983.026 503.618 C 984.358 509.388, 984.939 516.040, 985.036 526.618 C 985.110 534.803, 985.291 546, 985.437 551.500 C 985.584 557, 985.344 568.644, 984.904 577.375 C 984.464 586.107, 983.602 597.582, 982.988 602.875 C 982.374 608.169, 981.013 617.450, 979.963 623.500 C 978.913 629.550, 977.141 638.059, 976.027 642.410 C 974.912 646.760, 974 650.473, 974 650.660 C 974 650.847, 997.850 651, 1027 651 L 1080 651 1080 561.591 L 1080 472.182 1075.538 454.841 C 1073.084 445.303, 1069.737 431.425, 1068.102 424 C 1066.466 416.575, 1063.971 403.962, 1062.557 395.971 C 1061.143 387.980, 1059.319 375.155, 1058.504 367.471 C 1057.689 359.787, 1057.017 347.821, 1057.011 340.881 C 1057.005 333.941, 1057.674 324.398, 1058.497 319.676 C 1059.321 314.953, 1060.929 308.593, 1062.070 305.543 C 1063.211 302.492, 1065.882 297.798, 1068.005 295.112 C 1070.146 292.405, 1073.666 289.398, 1075.907 288.364 L 1079.948 286.500 1079.974 143.250 L 1080 0 1063.693 0 L 1047.386 0 1039.316 14.250 M 0.378 385 C 0.378 391.325, 0.541 393.913, 0.739 390.750 C 0.937 387.587, 0.937 382.413, 0.739 379.250 C 0.541 376.087, 0.378 378.675, 0.378 385" stroke="none" fill="#b3cfff" fill-rule="evenodd"/><path d="M 415 1.276 C 415 1.978, 415.475 6.337, 416.054 10.962 C 416.634 15.588, 418.896 26.376, 421.080 34.936 C 423.264 43.496, 428.174 60.625, 431.992 73 C 435.810 85.375, 445.967 116.425, 454.564 142 C 463.161 167.575, 477.603 210.550, 486.657 237.500 C 495.710 264.450, 503.560 288.260, 504.100 290.411 C 504.640 292.562, 507.715 302.912, 510.932 313.411 C 514.150 323.910, 518.829 339.925, 521.331 349 C 523.832 358.075, 526.372 368.425, 526.973 372 C 527.575 375.575, 528.474 379.400, 528.971 380.500 C 529.467 381.600, 530.324 386.775, 530.874 392 C 531.424 397.225, 532.601 405.325, 533.489 410 C 534.377 414.675, 535.586 423.450, 536.175 429.500 C 536.764 435.550, 537.304 445.914, 537.373 452.531 C 537.490 463.565, 537.290 464.973, 534.968 469.531 C 533.134 473.130, 531.353 475.033, 528.509 476.432 C 524.765 478.274, 523.451 478.316, 500.341 477.314 C 482.654 476.548, 474.793 476.566, 471.262 477.382 C 468.600 477.997, 465.254 479.400, 463.826 480.500 C 462.398 481.600, 459.627 484.824, 457.668 487.664 C 454.184 492.715, 454.093 493.098, 453.481 505.164 C 453.137 511.949, 453.273 521.344, 453.783 526.043 C 454.292 530.741, 455.383 536.141, 456.206 538.043 C 457.029 539.944, 458.643 544.425, 459.792 548 C 460.941 551.575, 462.426 556.075, 463.090 558 C 463.755 559.925, 464.650 562.400, 465.080 563.500 C 465.509 564.600, 467.049 568.425, 468.501 572 C 469.954 575.575, 471.786 579.774, 472.571 581.331 C 473.357 582.888, 474.003 584.913, 474.006 585.831 C 474.010 586.749, 474.610 588.625, 475.341 590 C 476.072 591.375, 477.918 594.975, 479.442 598 C 480.967 601.025, 482.806 604.850, 483.529 606.500 C 484.252 608.150, 488.817 618.826, 493.672 630.224 L 502.500 650.947 590.525 650.974 L 678.549 651 679.723 643.621 C 680.369 639.563, 681.859 633.375, 683.033 629.871 C 684.208 626.367, 688.475 616.703, 692.514 608.396 C 696.554 600.089, 702.028 590.393, 704.680 586.850 C 707.331 583.307, 711.184 577.954, 713.242 574.954 C 715.300 571.954, 719.023 567.250, 721.515 564.500 C 724.007 561.750, 727.076 557.925, 728.335 556 C 729.594 554.075, 732.324 549.934, 734.401 546.797 C 736.479 543.660, 739.167 540.060, 740.374 538.797 C 741.581 537.534, 744.372 534.250, 746.575 531.500 C 748.779 528.750, 753.079 522.675, 756.130 518 C 759.181 513.325, 763.414 506.350, 765.536 502.500 C 767.658 498.650, 771.238 492.575, 773.491 489 C 775.743 485.425, 779.226 478.675, 781.231 474 C 783.235 469.325, 785.986 462.575, 787.345 459 C 788.704 455.425, 791.679 446.875, 793.957 440 C 796.235 433.125, 798.805 423, 799.667 417.500 C 800.530 412, 801.392 399.625, 801.582 390 C 801.773 380.375, 802.151 354.725, 802.422 333 C 802.693 311.275, 803.165 288.185, 803.470 281.688 C 803.775 275.192, 804.496 266.642, 805.071 262.688 C 805.647 258.735, 806.290 237.050, 806.501 214.500 C 806.767 186.017, 807.360 169.426, 808.442 160.155 C 809.299 152.815, 809.795 146.477, 809.543 146.070 C 809.292 145.664, 809.461 142.219, 809.918 138.415 C 810.375 134.612, 811.932 125.650, 813.378 118.500 C 814.823 111.350, 816.640 102.575, 817.415 99 C 818.190 95.425, 819.315 89.217, 819.916 85.205 C 820.517 81.193, 821.955 75.118, 823.112 71.705 C 824.269 68.292, 825.863 63.025, 826.654 60 C 827.445 56.975, 830.314 50, 833.030 44.500 C 835.745 39, 838.593 31.575, 839.357 28 C 840.122 24.425, 842.102 18.538, 843.756 14.919 C 845.411 11.299, 848.168 6.739, 849.883 4.787 C 851.597 2.834, 853 0.958, 853 0.618 C 853 0.278, 754.450 0, 634 0 C 457.066 0, 415 0.245, 415 1.276 M 0.102 335.750 L 0.058 651 99.091 651 L 198.124 651 194.994 646.642 C 193.273 644.244, 185.100 633.557, 176.833 622.892 C 168.566 612.226, 159.408 600.575, 156.483 597 C 153.558 593.425, 146.516 584.650, 140.834 577.500 C 135.151 570.350, 129.959 563.825, 129.295 563 C 128.631 562.175, 125.596 558.350, 122.550 554.500 C 119.503 550.650, 117.009 546.938, 117.006 546.250 C 117.003 545.563, 116.624 545, 116.164 545 C 115.705 545, 111.767 540.407, 107.414 534.793 C 103.061 529.179, 98.193 522.542, 96.595 520.043 C 94.997 517.544, 90.467 511.225, 86.528 506 C 82.590 500.775, 74.415 489.525, 68.362 481 C 62.310 472.475, 52.977 458.614, 47.622 450.198 C 42.267 441.781, 35.457 430.306, 32.489 424.698 C 29.521 419.089, 25.007 409.775, 22.460 404 C 19.912 398.225, 16.796 390.350, 15.535 386.500 C 14.273 382.650, 12.673 374.295, 11.979 367.933 C 10.985 358.830, 10.971 354.623, 11.914 348.179 C 12.572 343.676, 13.926 337.621, 14.923 334.723 C 15.920 331.826, 17.900 327.157, 19.324 324.347 C 20.748 321.538, 24.584 315.698, 27.850 311.370 C 31.116 307.041, 34.861 302.375, 36.171 301 C 37.482 299.625, 40.342 297.077, 42.527 295.337 C 44.712 293.598, 49.200 290.146, 52.500 287.666 C 55.800 285.186, 59.236 282.499, 60.135 281.694 C 61.034 280.888, 63.280 279.166, 65.125 277.865 C 66.970 276.564, 71.169 273.025, 74.456 270 C 77.743 266.975, 82.584 262.250, 85.214 259.500 C 87.843 256.750, 90.559 253.786, 91.247 252.912 C 91.936 252.039, 93.064 250.464, 93.752 249.412 C 94.441 248.361, 96.374 244.800, 98.047 241.500 C 99.797 238.049, 101.576 232.390, 102.235 228.180 C 103.106 222.611, 103.095 218.886, 102.188 212.610 C 101.531 208.072, 99.692 200.566, 98.101 195.930 C 96.509 191.293, 94.083 185.007, 92.709 181.959 C 91.334 178.912, 86.857 170.587, 82.758 163.459 C 78.658 156.332, 71.718 144.875, 67.335 138 C 62.952 131.125, 54.636 118.075, 48.855 109 C 43.073 99.925, 36.312 89.125, 33.830 85 C 31.347 80.875, 25.797 71.200, 21.496 63.500 C 17.194 55.800, 11.146 44.100, 8.054 37.500 C 4.963 30.900, 1.919 24.375, 1.290 23 C 0.429 21.118, 0.136 98.399, 0.102 335.750" stroke="none" fill="#80b1ff" fill-rule="evenodd"/><path d="M 0 9.769 L 0 19.538 6.521 33.519 C 10.108 41.209, 16.128 53.130, 19.898 60.011 C 23.669 66.891, 29.579 77.241, 33.032 83.011 C 36.484 88.780, 48.177 107.450, 59.016 124.500 C 69.854 141.550, 80.751 159.100, 83.231 163.500 C 85.710 167.900, 89.399 174.803, 91.427 178.840 C 93.456 182.877, 96.718 190.970, 98.678 196.824 C 101.512 205.295, 102.346 209.566, 102.764 217.743 C 103.238 227.037, 103.028 228.818, 100.557 236.414 C 99.055 241.032, 97.077 245.651, 96.163 246.679 C 95.248 247.706, 92.969 250.787, 91.099 253.524 C 89.228 256.261, 84.953 261.143, 81.599 264.374 C 78.244 267.604, 72.350 272.779, 68.500 275.874 C 64.650 278.968, 61.350 281.837, 61.167 282.250 C 60.983 282.663, 60.266 283, 59.572 283 C 58.879 283, 55.831 285.138, 52.801 287.750 C 49.770 290.363, 46.212 293.171, 44.895 293.992 C 43.578 294.812, 39.655 298.412, 36.177 301.992 C 32.699 305.571, 27.345 312.250, 24.279 316.834 C 20.946 321.817, 17.492 328.653, 15.690 333.834 C 13.311 340.675, 12.582 344.711, 12.226 353 C 11.978 358.775, 12.252 367.325, 12.834 372 C 13.417 376.675, 14.783 383.200, 15.869 386.500 C 16.956 389.800, 19.043 395.425, 20.508 399 C 21.973 402.575, 26.049 411.227, 29.565 418.227 C 33.081 425.227, 38.951 435.796, 42.609 441.713 C 46.266 447.631, 52.721 457.654, 56.953 463.986 C 61.184 470.319, 68.842 481.350, 73.971 488.500 C 79.099 495.650, 86.130 505.189, 89.595 509.697 C 93.060 514.206, 96.604 519.156, 97.472 520.697 C 98.339 522.239, 102.416 527.775, 106.531 533 C 110.647 538.225, 116.148 545.348, 118.757 548.830 C 121.366 552.311, 127.192 559.736, 131.705 565.330 C 136.218 570.923, 141.691 577.750, 143.867 580.500 C 146.043 583.250, 149.799 587.975, 152.215 591 C 154.630 594.025, 163.782 605.748, 172.553 617.051 C 181.324 628.354, 190.750 640.606, 193.500 644.276 L 198.500 650.950 305.196 650.975 L 411.892 651 410.044 645.750 C 409.028 642.863, 405.952 634.200, 403.209 626.500 C 400.466 618.800, 395.521 605.750, 392.220 597.500 C 388.918 589.250, 382.078 572.375, 377.018 560 C 371.959 547.625, 367.386 535.718, 366.857 533.539 C 366.328 531.361, 365.469 529.065, 364.948 528.437 C 364.427 527.810, 362.938 524.417, 361.638 520.898 C 360.339 517.379, 358.033 511.350, 356.515 507.500 C 354.997 503.650, 353.082 498.700, 352.260 496.500 C 351.438 494.300, 349.918 490.864, 348.883 488.864 C 347.847 486.864, 347 484.421, 347 483.435 C 347 482.449, 346.440 480.035, 345.755 478.071 C 345.071 476.107, 344.221 474.275, 343.867 474 C 343.513 473.725, 341.389 467.753, 339.146 460.728 C 336.903 453.704, 334.133 442.904, 332.990 436.728 C 331.847 430.553, 330.145 422.125, 329.206 418 C 327.958 412.513, 327.500 405.925, 327.500 393.455 C 327.500 378.906, 327.756 376.019, 329.250 373.740 C 330.213 372.272, 331 370.471, 331 369.738 C 331 369.005, 332.706 366.740, 334.792 364.703 C 336.878 362.666, 339.049 361, 339.618 361 C 340.186 361, 341.742 359.813, 343.076 358.361 C 344.409 356.910, 349.805 352.920, 355.066 349.496 C 360.328 346.071, 366.074 341.521, 367.837 339.385 C 369.599 337.248, 371.992 333.025, 373.155 330 C 374.671 326.057, 375.360 321.668, 375.589 314.500 C 375.785 308.334, 375.320 301.433, 374.375 296.500 C 373.533 292.100, 371.556 284, 369.983 278.500 C 368.410 273, 365.471 264.675, 363.451 260 C 361.432 255.325, 356.862 244.975, 353.295 237 C 349.728 229.025, 346.228 220.611, 345.518 218.302 C 344.808 215.993, 343.276 212.895, 342.114 211.417 C 340.951 209.939, 340 208.150, 340 207.442 C 340 206.733, 338.955 204.881, 337.678 203.327 C 336.401 201.772, 332.971 196, 330.055 190.500 C 327.138 185, 320.695 173.075, 315.735 164 C 310.775 154.925, 303.008 140.750, 298.474 132.500 C 293.940 124.250, 284.808 106.925, 278.180 94 C 271.553 81.075, 262.515 62.268, 258.097 52.206 C 253.678 42.144, 248.312 28.644, 246.171 22.206 C 244.030 15.768, 241.721 8.138, 241.040 5.250 L 239.801 0 119.900 0 L 0 0 0 9.769 M 851.378 3.835 C 849.661 5.851, 846.824 10.347, 845.075 13.827 C 843.325 17.307, 840.988 23.832, 839.881 28.327 C 838.774 32.822, 835.879 40.550, 833.448 45.500 C 831.017 50.450, 827.432 59.675, 825.482 66 C 823.531 72.325, 821.236 81.550, 820.381 86.500 C 819.525 91.450, 817.986 99.550, 816.961 104.500 C 815.936 109.450, 814.183 118.225, 813.067 124 C 811.951 129.775, 810.816 136.975, 810.545 140 C 810.273 143.025, 809.769 149.775, 809.425 155 C 809.080 160.225, 808.456 168.325, 808.038 173 C 807.619 177.675, 807.204 196.803, 807.115 215.507 C 807.026 234.211, 806.754 251.536, 806.511 254.007 C 806.269 256.478, 805.783 261.200, 805.433 264.500 C 805.082 267.800, 804.464 276.800, 804.059 284.500 C 803.654 292.200, 803.240 314.058, 803.138 333.074 C 803.036 352.089, 802.756 368.673, 802.514 369.927 C 802.273 371.180, 802.005 380.597, 801.919 390.853 C 801.813 403.407, 801.194 412.767, 800.024 419.500 C 799.068 425, 796.463 434.900, 794.234 441.500 C 792.005 448.100, 788.608 457.550, 786.684 462.500 C 784.759 467.450, 782.006 474.129, 780.565 477.342 C 779.123 480.555, 776.472 485.505, 774.672 488.342 C 772.873 491.179, 769.661 496.650, 767.536 500.500 C 765.410 504.350, 760.817 511.875, 757.328 517.222 C 753.839 522.569, 747.256 531.569, 742.699 537.222 C 738.142 542.875, 733.223 549.525, 731.768 552 C 730.313 554.475, 725.382 561.090, 720.811 566.700 C 716.240 572.310, 709.894 580.539, 706.709 584.986 C 703.523 589.434, 697.722 599.469, 693.818 607.287 C 689.913 615.104, 685.628 624.650, 684.296 628.500 C 682.964 632.350, 681.282 638.526, 680.558 642.224 C 679.578 647.233, 679.530 649.279, 680.371 650.243 C 681.288 651.294, 708.969 651.471, 827.573 651.186 L 973.646 650.834 975.826 641.667 C 977.025 636.625, 978.915 627.112, 980.024 620.528 C 981.134 613.943, 982.708 601.608, 983.521 593.117 C 984.378 584.176, 984.976 567.751, 984.944 554.089 C 984.913 541.115, 984.474 526, 983.967 520.500 C 983.461 515, 982.757 507.800, 982.401 504.500 C 982.046 501.200, 981.398 498.049, 980.961 497.498 C 980.524 496.947, 980.167 494.383, 980.167 491.800 C 980.167 489.217, 979.633 484.493, 978.981 481.302 C 978.328 478.111, 977.420 474.600, 976.962 473.500 C 976.504 472.400, 975.840 468.467, 975.486 464.761 C 975.132 461.054, 974.428 457.765, 973.922 457.452 C 973.415 457.138, 973 455.409, 973 453.608 C 973 451.807, 972.682 450.015, 972.292 449.626 C 971.903 449.236, 971.457 445.714, 971.301 441.797 C 971.131 437.536, 970.461 434.039, 969.632 433.088 C 968.781 432.112, 968.184 428.837, 968.085 424.593 C 967.996 420.794, 967.711 417.342, 967.452 416.922 C 967.192 416.501, 966.723 414.660, 966.410 412.829 C 966.097 410.998, 965.659 407.925, 965.437 406 C 965.214 404.075, 964.631 400.250, 964.141 397.500 C 963.651 394.750, 962.502 387.777, 961.587 382.004 C 960.673 376.232, 959.229 365.432, 958.380 358.004 C 957.481 350.148, 956.608 331.043, 956.293 312.324 C 955.944 291.627, 956.172 274.858, 956.931 265.324 C 957.580 257.171, 958.767 245.325, 959.569 239 C 960.371 232.675, 962.193 220.975, 963.618 213 C 965.043 205.025, 968.412 189.670, 971.104 178.878 C 973.797 168.086, 977.845 153.461, 980.100 146.378 C 982.356 139.295, 986.915 126.300, 990.232 117.500 C 993.549 108.700, 999.184 94.750, 1002.753 86.500 C 1006.322 78.250, 1013.743 62.500, 1019.242 51.500 C 1024.742 40.500, 1033.065 24.750, 1037.739 16.500 C 1042.413 8.250, 1046.435 1.163, 1046.678 0.750 C 1046.920 0.337, 1003.779 0.038, 950.809 0.085 L 854.500 0.169 851.378 3.835 M 1075.500 288.837 C 1073.850 289.843, 1071.046 292.323, 1069.269 294.347 C 1067.491 296.371, 1065.404 299.258, 1064.630 300.763 C 1063.855 302.269, 1062.284 306.548, 1061.137 310.272 C 1059.990 313.997, 1058.552 322.043, 1057.941 328.152 C 1057.131 336.257, 1057.127 343.345, 1057.928 354.379 C 1058.532 362.696, 1059.930 375.575, 1061.034 383 C 1062.138 390.425, 1064.622 404.375, 1066.553 414 C 1068.484 423.625, 1072.132 439.600, 1074.661 449.500 C 1077.190 459.400, 1079.637 468.175, 1080.099 469 C 1080.561 469.825, 1080.953 429.212, 1080.970 378.750 C 1080.994 305.999, 1080.741 287.001, 1079.750 287.004 C 1079.063 287.006, 1077.150 287.831, 1075.500 288.837" stroke="none" fill="#95eefd" fill-rule="evenodd"/><path d="M 415 1.276 C 415 1.978, 415.475 6.337, 416.054 10.962 C 416.634 15.588, 418.896 26.376, 421.080 34.936 C 423.264 43.496, 428.174 60.625, 431.992 73 C 435.810 85.375, 445.967 116.425, 454.564 142 C 463.161 167.575, 477.603 210.550, 486.657 237.500 C 495.710 264.450, 503.560 288.260, 504.100 290.411 C 504.640 292.562, 507.715 302.912, 510.932 313.411 C 514.150 323.910, 518.829 339.925, 521.331 349 C 523.832 358.075, 526.372 368.425, 526.973 372 C 527.575 375.575, 528.474 379.400, 528.971 380.500 C 529.467 381.600, 530.324 386.775, 530.874 392 C 531.424 397.225, 532.601 405.325, 533.489 410 C 534.377 414.675, 535.586 423.450, 536.175 429.500 C 536.764 435.550, 537.304 445.914, 537.373 452.531 C 537.490 463.565, 537.290 464.973, 534.968 469.531 C 533.134 473.130, 531.353 475.033, 528.509 476.432 C 524.765 478.274, 523.451 478.316, 500.341 477.314 C 482.654 476.548, 474.793 476.566, 471.262 477.382 C 468.600 477.997, 465.254 479.400, 463.826 480.500 C 462.398 481.600, 459.627 484.824, 457.668 487.664 C 454.184 492.715, 454.093 493.098, 453.481 505.164 C 453.137 511.949, 453.273 521.344, 453.783 526.043 C 454.292 530.741, 455.383 536.141, 456.206 538.043 C 457.029 539.944, 458.643 544.425, 459.792 548 C 460.941 551.575, 462.426 556.075, 463.090 558 C 463.755 559.925, 464.650 562.400, 465.080 563.500 C 465.509 564.600, 467.049 568.425, 468.501 572 C 469.954 575.575, 471.786 579.774, 472.571 581.331 C 473.357 582.888, 474.003 584.913, 474.006 585.831 C 474.010 586.749, 474.610 588.625, 475.341 590 C 476.072 591.375, 477.918 594.975, 479.442 598 C 480.967 601.025, 482.806 604.850, 483.529 606.500 C 484.252 608.150, 488.817 618.826, 493.672 630.224 L 502.500 650.947 590.525 650.974 L 678.549 651 679.723 643.621 C 680.369 639.563, 681.859 633.375, 683.033 629.871 C 684.208 626.367, 688.475 616.703, 692.514 608.396 C 696.554 600.089, 702.028 590.393, 704.680 586.850 C 707.331 583.307, 711.184 577.954, 713.242 574.954 C 715.300 571.954, 719.023 567.250, 721.515 564.500 C 724.007 561.750, 727.076 557.925, 728.335 556 C 729.594 554.075, 732.324 549.934, 734.401 546.797 C 736.479 543.660, 739.167 540.060, 740.374 538.797 C 741.581 537.534, 744.372 534.250, 746.575 531.500 C 748.779 528.750, 753.079 522.675, 756.130 518 C 759.181 513.325, 763.414 506.350, 765.536 502.500 C 767.658 498.650, 771.238 492.575, 773.491 489 C 775.743 485.425, 779.226 478.675, 781.231 474 C 783.235 469.325, 785.986 462.575, 787.345 459 C 788.704 455.425, 791.679 446.875, 793.957 440 C 796.235 433.125, 798.805 423, 799.667 417.500 C 800.530 412, 801.392 399.625, 801.582 390 C 801.773 380.375, 802.151 354.725, 802.422 333 C 802.693 311.275, 803.165 288.185, 803.470 281.688 C 803.775 275.192, 804.496 266.642, 805.071 262.688 C 805.647 258.735, 806.290 237.050, 806.501 214.500 C 806.767 186.017, 807.360 169.426, 808.442 160.155 C 809.299 152.815, 809.795 146.477, 809.543 146.070 C 809.292 145.664, 809.461 142.219, 809.918 138.415 C 810.375 134.612, 811.932 125.650, 813.378 118.500 C 814.823 111.350, 816.640 102.575, 817.415 99 C 818.190 95.425, 819.315 89.217, 819.916 85.205 C 820.517 81.193, 821.955 75.118, 823.112 71.705 C 824.269 68.292, 825.863 63.025, 826.654 60 C 827.445 56.975, 830.314 50, 833.030 44.500 C 835.745 39, 838.593 31.575, 839.357 28 C 840.122 24.425, 842.102 18.538, 843.756 14.919 C 845.411 11.299, 848.168 6.739, 849.883 4.787 C 851.597 2.834, 853 0.958, 853 0.618 C 853 0.278, 754.450 0, 634 0 C 457.066 0, 415 0.245, 415 1.276 M 0.102 335.750 L 0.058 651 99.091 651 L 198.124 651 194.994 646.642 C 193.273 644.244, 185.100 633.557, 176.833 622.892 C 168.566 612.226, 159.408 600.575, 156.483 597 C 153.558 593.425, 146.516 584.650, 140.834 577.500 C 135.151 570.350, 129.959 563.825, 129.295 563 C 128.631 562.175, 125.596 558.350, 122.550 554.500 C 119.503 550.650, 117.009 546.938, 117.006 546.250 C 117.003 545.563, 116.624 545, 116.164 545 C 115.705 545, 111.767 540.407, 107.414 534.793 C 103.061 529.179, 98.193 522.542, 96.595 520.043 C 94.997 517.544, 90.467 511.225, 86.528 506 C 82.590 500.775, 74.415 489.525, 68.362 481 C 62.310 472.475, 52.977 458.614, 47.622 450.198 C 42.267 441.781, 35.457 430.306, 32.489 424.698 C 29.521 419.089, 25.007 409.775, 22.460 404 C 19.912 398.225, 16.796 390.350, 15.535 386.500 C 14.273 382.650, 12.673 374.295, 11.979 367.933 C 10.985 358.830, 10.971 354.623, 11.914 348.179 C 12.572 343.676, 13.926 337.621, 14.923 334.723 C 15.920 331.826, 17.900 327.157, 19.324 324.347 C 20.748 321.538, 24.584 315.698, 27.850 311.370 C 31.116 307.041, 34.861 302.375, 36.171 301 C 37.482 299.625, 40.342 297.077, 42.527 295.337 C 44.712 293.598, 49.200 290.146, 52.500 287.666 C 55.800 285.186, 59.236 282.499, 60.135 281.694 C 61.034 280.888, 63.280 279.166, 65.125 277.865 C 66.970 276.564, 71.169 273.025, 74.456 270 C 77.743 266.975, 82.584 262.250, 85.214 259.500 C 87.843 256.750, 90.559 253.786, 91.247 252.912 C 91.936 252.039, 93.064 250.464, 93.752 249.412 C 94.441 248.361, 96.374 244.800, 98.047 241.500 C 99.797 238.049, 101.576 232.390, 102.235 228.180 C 103.106 222.611, 103.095 218.886, 102.188 212.610 C 101.531 208.072, 99.692 200.566, 98.101 195.930 C 96.509 191.293, 94.083 185.007, 92.709 181.959 C 91.334 178.912, 86.857 170.587, 82.758 163.459 C 78.658 156.332, 71.718 144.875, 67.335 138 C 62.952 131.125, 54.636 118.075, 48.855 109 C 43.073 99.925, 36.312 89.125, 33.830 85 C 31.347 80.875, 25.797 71.200, 21.496 63.500 C 17.194 55.800, 11.146 44.100, 8.054 37.500 C 4.963 30.900, 1.919 24.375, 1.290 23 C 0.429 21.118, 0.136 98.399, 0.102 335.750" stroke="none" fill="#80b1ff" fill-rule="evenodd"/><path d="M 1080.487 143.500 C 1080.487 222.700, 1080.605 254.952, 1080.750 215.172 C 1080.895 175.391, 1080.895 110.591, 1080.750 71.172 C 1080.605 31.752, 1080.487 64.300, 1080.487 143.500 M 975.677 465.500 C 976.002 469.350, 976.618 472.950, 977.046 473.500 C 977.473 474.050, 978.020 475.850, 978.262 477.500 L 978.700 480.500 978.850 477.309 C 978.933 475.554, 978.550 473.840, 978 473.500 C 977.450 473.160, 976.968 470.546, 976.930 467.691 C 976.891 464.836, 976.460 461.600, 975.972 460.500 C 975.412 459.238, 975.303 461.083, 975.677 465.500 M 1079.752 534.345 C 1079.891 570.730, 1080.124 611.975, 1080.270 626 C 1080.416 640.025, 1080.633 610.775, 1080.752 561 C 1080.872 511.225, 1080.639 469.980, 1080.235 469.345 C 1079.831 468.709, 1079.614 497.959, 1079.752 534.345 M 982.647 506.500 C 982.999 509.250, 983.603 514.200, 983.991 517.500 L 984.695 523.500 984.828 517.500 C 984.901 514.200, 984.297 509.250, 983.484 506.500 L 982.007 501.500 982.647 506.500 M 645.306 651.747 C 651.800 651.922, 662.150 651.921, 668.306 651.746 C 674.463 651.571, 669.150 651.428, 656.500 651.429 C 643.850 651.429, 638.813 651.573, 645.306 651.747 M 747.250 651.750 C 766.362 651.902, 797.637 651.902, 816.750 651.750 C 835.862 651.598, 820.225 651.473, 782 651.473 C 743.775 651.473, 728.137 651.598, 747.250 651.750" stroke="none" fill="#eee4a8" fill-rule="evenodd"/><path d="M 807.310 174.500 C 807.315 177.800, 807.502 179.029, 807.725 177.232 C 807.947 175.435, 807.943 172.735, 807.715 171.232 C 807.486 169.729, 807.304 171.200, 807.310 174.500 M 806.310 246.500 C 806.315 249.800, 806.502 251.029, 806.725 249.232 C 806.947 247.435, 806.943 244.735, 806.715 243.232 C 806.486 241.729, 806.304 243.200, 806.310 246.500 M 75.462 269.205 L 70.500 274.411 75.500 269.994 C 78.250 267.564, 80.650 265.222, 80.833 264.788 C 81.017 264.355, 81 264, 80.796 264 C 80.592 264, 78.192 266.342, 75.462 269.205 M 803.310 291.500 C 803.315 294.800, 803.502 296.029, 803.725 294.232 C 803.947 292.435, 803.943 289.735, 803.715 288.232 C 803.486 286.729, 803.304 288.200, 803.310 291.500 M 11.328 357.500 C 11.333 361.350, 11.513 362.802, 11.730 360.728 C 11.946 358.653, 11.943 355.503, 11.722 353.728 C 11.501 351.952, 11.324 353.650, 11.328 357.500 M 802.310 363.500 C 802.315 366.800, 802.502 368.029, 802.725 366.232 C 802.947 364.435, 802.943 361.735, 802.715 360.232 C 802.486 358.729, 802.304 360.200, 802.310 363.500 M 716.677 570.043 C 714.574 572.769, 713.070 575, 713.334 575 C 713.598 575, 715.698 572.750, 718 570 C 720.302 567.250, 721.807 565.019, 721.343 565.043 C 720.879 565.066, 718.780 567.316, 716.677 570.043" stroke="none" fill="#95d1fb" fill-rule="evenodd"/></svg>